<svg xmlns="http://www.w3.org/2000/svg" viewBox="0 0 100 100" width="100%" height="100%">
  <style>
    .potaccio {
      fill: #235fc0; /* Colore per tema chiaro (Ardesia scuro) */
    }
    @media (prefers-color-scheme: dark) {
      .potaccio {
        fill: #9e6ace; /* Colore per tema scuro (Bianco ghiaccio) */
      }
    }
  </style>
  <!-- La classe 'potaccio' gestisce lo switch di colore basato sul sistema dell'utente.
       L'uso di fill-rule="evenodd" fora la macchia d'inchiostro per far trasparire lo sfondo del browser. -->
  <path class="potaccio" fill-rule="evenodd" d="
    M 25,50 
    C 20,30 35,15 55,20 
    C 75,25 85,40 80,60 
    C 75,80 50,85 35,75 
    C 20,65 30,70 25,50 Z 
    
    M 42,35 
    C 38,35 36,37 36,41 
    L 36,46 
    C 36,48 34,50 31,50 
    C 34,50 36,52 36,54 
    L 36,59 
    C 36,63 38,65 42,65 
    L 42,61 
    C 40,61 40,60 40,58 
    L 40,52 
    C 40,49 38,48 36,48 
    C 38,48 40,47 40,44 
    L 40,38 
    C 40,36 40,35 42,35 Z 
    
    M 58,35 
    C 62,35 64,36 64,38 
    L 64,44 
    C 64,47 66,48 68,48 
    C 66,48 64,49 64,52 
    L 64,58 
    C 64,60 64,61 62,61 
    L 62,65 
    C 66,65 68,63 68,59 
    L 68,54 
    C 68,52 70,50 73,50 
    C 70,50 68,48 68,46 
    L 68,41 
    C 68,37 66,35 62,35 Z" />
</svg>
