<?xml version="1.0" encoding="utf-8"?>
<!DOCTYPE svg PUBLIC "-//W3C//DTD SVG 1.0//EN" "http://www.w3.org/TR/2001/REC-SVG-20010904/DTD/svg10.dtd">
<svg version="1.0" xmlns="http://www.w3.org/2000/svg" width="48px" height="48px" viewBox="8 8 32 32" preserveAspectRatio="xMidYMid meet">
 <g fill="#fff" stroke="#ffffff" stroke-width="0.8" stroke-linejoin="round">
  <path d="M10.83 35.10 c-1.74 -0.45 -2.83 -2.21 -2.36 -3.80 0.21 -0.70 0.80 -1.44 1.42 -1.78 l0.30 -0.16 0.03 -0.57 c0.10 -1.87 0.87 -4.50 1.98 -6.79 0.47 -0.97 0.80 -1.50 1.12 -1.79 0.25 -0.22 0.99 -0.60 5.66 -2.88 0.99 -0.48 2.40 -1.17 3.12 -1.52 3.02 -1.48 3.62 -1.77 3.91 -1.89 0.29 -0.11 0.36 -0.12 1.36 -0.14 l1.05 -0.02 0.11 -0.36 c0.31 -0.98 1.23 -1.80 2.32 -2.07 1.58 -0.40 3.26 0.52 3.81 2.07 l0.13 0.37 1.59 0 c0.88 0 1.73 0.02 1.89 0.05 0.52 0.08 0.92 0.36 1.14 0.77 0.09 0.16 0.10 0.27 0.10 0.71 0 0.59 -0.17 1.37 -0.49 2.21 -1.03 2.73 -3.34 4.78 -6.19 5.47 l-0.40 0.10 -0.01 0.38 c-0.03 1.04 -0.51 2.40 -1.21 3.48 -0.42 0.65 -0.65 0.93 -1.30 1.59 l-0.61 0.62 0.52 0.98 c0.29 0.53 0.63 1.19 0.77 1.44 l0.25 0.47 1.31 0.02 c1.44 0.03 1.50 0.04 1.71 0.33 0.31 0.44 0.15 0.98 -0.35 1.22 -0.15 0.07 -0.30 0.09 -0.81 0.09 -0.35 0 -0.63 0.02 -0.65 0.05 -0.01 0.02 0.01 0.13 0.07 0.23 0.22 0.44 0.06 0.90 -0.39 1.13 -0.17 0.09 -0.28 0.09 -2.20 0.08 -1.97 -0.01 -2.03 -0.02 -2.21 -0.12 -0.25 -0.14 -0.51 -0.42 -0.88 -0.95 -0.17 -0.24 -0.49 -0.72 -0.72 -1.05 -0.23 -0.33 -0.71 -1.04 -1.06 -1.56 -0.36 -0.52 -0.69 -1.04 -0.74 -1.15 -0.18 -0.39 -0.15 -0.57 0.46 -2.58 0.31 -1.01 0.72 -2.37 0.91 -3.01 0.20 -0.64 0.39 -1.22 0.45 -1.29 0.16 -0.22 0.38 -0.33 0.63 -0.33 0.26 0 0.43 0.08 0.60 0.27 0.21 0.22 0.25 0.56 0.11 0.95 -0.08 0.22 -1.15 3.72 -1.45 4.72 -0.09 0.31 -0.17 0.61 -0.17 0.67 0 0.09 0.45 0.79 1.95 2.96 l0.61 0.89 0.86 0 c0.51 0 0.85 -0.02 0.85 -0.05 0 -0.02 -0.43 -0.83 -0.94 -1.79 -1.26 -2.32 -1.31 -2.43 -1.31 -2.74 0 -0.36 0.12 -0.57 0.57 -0.94 1.43 -1.20 2.32 -2.51 2.67 -3.94 0.08 -0.32 0.10 -0.56 0.11 -1.13 0.01 -0.93 -0 -0.86 0.19 -1.07 0.20 -0.22 0.33 -0.27 0.91 -0.31 0.81 -0.05 1.47 -0.25 2.34 -0.71 1.07 -0.56 2.11 -1.50 2.75 -2.50 0.25 -0.38 0.60 -1.14 0.76 -1.63 0.16 -0.49 0.36 -1.44 0.31 -1.54 -0.02 -0.06 -0.28 -0.07 -1.68 -0.07 l-1.65 0 -0.08 0.27 c-0.58 1.88 -2.68 2.83 -4.46 2 -0.85 -0.39 -1.49 -1.11 -1.76 -1.99 l-0.08 -0.26 -0.93 0 c-0.69 0 -0.98 0.02 -1.10 0.07 -0.22 0.09 -2.39 1.14 -6.21 3 -4.97 2.43 -5.72 2.81 -5.85 2.94 -0.40 0.42 -1.35 2.48 -1.83 3.97 -0.45 1.38 -0.77 3.01 -0.73 3.67 l0.01 0.26 1.40 0 1.40 0 0.19 0.14 c0.55 0.39 0.46 1.13 -0.17 1.41 -0.05 0.02 -0.88 0.05 -1.83 0.07 l-1.74 0.02 -0.31 0.15 c-0.51 0.25 -0.75 0.64 -0.75 1.18 -0 0.42 0.14 0.73 0.46 1.03 0.14 0.13 0.38 0.28 0.52 0.34 l0.27 0.11 3.47 0 3.47 0 0.35 -0.11 c0.98 -0.30 1.68 -1 1.95 -1.91 0.11 -0.39 0.10 -1.03 -0.02 -1.43 -0.22 -0.71 -0.74 -1.30 -1.42 -1.64 -0.52 -0.25 -0.90 -0.33 -1.72 -0.33 -0.63 0 -0.69 -0.01 -0.88 -0.12 -0.40 -0.23 -0.51 -0.76 -0.23 -1.13 0.23 -0.30 0.32 -0.33 1.29 -0.33 1.03 0 1.37 0.08 2.13 0.45 0.57 0.27 0.93 0.54 1.35 0.99 0.51 0.53 0.91 1.25 1.09 1.94 0.13 0.49 0.12 1.47 -0.02 1.97 -0.13 0.45 -0.35 0.95 -0.61 1.33 -0.10 0.15 -0.17 0.29 -0.16 0.31 0.02 0.01 0.46 0.03 0.99 0.03 1.07 0 1.13 0.01 1.38 0.34 0.30 0.40 0.15 0.96 -0.31 1.17 -0.18 0.08 -0.45 0.09 -6.17 0.08 -5.77 0 -5.99 -0 -6.33 -0.09z m21.53 -18.85 c0.38 -0.17 0.63 -0.38 0.83 -0.70 0.38 -0.59 0.43 -1.27 0.12 -1.88 -0.20 -0.41 -0.48 -0.68 -0.91 -0.89 -0.29 -0.14 -0.35 -0.15 -0.78 -0.15 -0.60 0 -0.90 0.11 -1.29 0.48 -0.32 0.30 -0.54 0.69 -0.61 1.12 -0.13 0.76 0.35 1.65 1.07 1.99 0.36 0.17 0.44 0.19 0.88 0.17 0.34 -0.01 0.47 -0.04 0.69 -0.14z"/>
 </g>
</svg>